<svg id="Слой_1" data-name="Слой 1" xmlns="http://www.w3.org/2000/svg" viewBox="0 0 39.35 62.77"><defs><style>.cls-1{fill:#fff;}</style></defs><title>leg</title><path class="cls-1" d="M-199.76,710.61c0.21-9.36.61-29.6,0.61-38-13.49-14.65-13.42,2.84-13.42,2.84,8.08,10.54,5.16,40.9,5.16,40.9S-232,719-231.87,721.8c0.11,1.93,14.88-2.5,15.31-.27,0,0-15.2,3.1-15.31,6s21.67-4.86,22.93-4.46c1,0.31-9.4,6.39-6.55,6.39s14.35-4.81,15.5-12.65c2.9,2.69,6.87,6.1,7.38,5.25C-191.64,720.47-199.2,711.28-199.76,710.61Z" transform="translate(231.87 -666.73)"/></svg>