<svg id="Слой_1" data-name="Слой 1" xmlns="http://www.w3.org/2000/svg" viewBox="0 0 211.59 233.67"><defs><style>.cls-1{fill:#fff;}</style></defs><title>pak</title><path class="cls-1" d="M-112.54,501.63c-21.55-15.9-32.81,11.26-42.81,23.19-34.27,3.44-80.57,19-98.09-8.92-13.18-21-9.55-60.8-42.81-64.2,0.51-2.1,7.86-7.4,0-7.14-10.25-.42-16.43,17.81-26.75,23.19,4.57,3.82,10.11-1.64,12.48,1.78-4.28,10.31-.18,17.93,5.36,23.18-8.37,16.43-15.94,30.38-17.84,49.94-7.37,75.88,49.84,104.44,94.52,132a62.46,62.46,0,0,0,30.15,2.85,24.57,24.57,0,0,0,4.44-1.22c29.83-11.14,59.33-18.15,52.8-65.84,19.26-6.9,23-29.32,21.4-57.07C-112.7,540.61-111.07,517.43-112.54,501.63Z" transform="translate(323.64 -444.56)"/></svg>